# xmcd
#
# Track frame offsets:
#	150
#	18572
#	30622
#	42745
#	53507
#	64114
#	74320
#	87230
#	101602
#	116370
#	126402
#	138350
#
# Disc length: 2019 seconds
#
# Revision: 0
# Processed by: cddbd v1.5.2PL0 Copyright (c) Steve Scherf et al.
# Submitted via: EasyCDDAExtractor 9.1.3.1
#
DISCID=a607e10c
DTITLE=Tibagi e Miltinho - TIBAGI and MILTINHO
DYEAR=1988
DGENRE=Country
TTITLE0=Teu casamento
TTITLE1=Nova flor
TTITLE2=Brotinho encantador
TTITLE3=Quero beijar-te as mãos
TTITLE4=A noite passei chorando
TTITLE5=Marcha da vitória
TTITLE6=Pé de cedro
TTITLE7=Em cada coração um pecado
TTITLE8=Canarinho do peito amarelo
TTITLE9=Orgulho
TTITLE10=A mulher do meu amigo
TTITLE11=Sonho de amor
EXTD=
EXTT0=
EXTT1=
EXTT2=
EXTT3=
EXTT4=
EXTT5=
EXTT6=
EXTT7=
EXTT8=
EXTT9=
EXTT10=
EXTT11=
PLAYORDER=
